<?xml version="1.0" encoding="utf-8"?>
<!DOCTYPE svg PUBLIC "-//W3C//DTD SVG 1.1//EN" "http://www.w3.org/Graphics/SVG/1.1/DTD/svg11.dtd">
<svg version="1.1" xmlns="http://www.w3.org/2000/svg" xmlns:xlink="http://www.w3.org/1999/xlink" x="0px" y="0px" width="60px" height="60px" viewBox="0 0 200 200">

<path style=" stroke:none;fill-rule:nonzero;;fill-opacity:1;" d="M 161.25 22.648438 C 163.75 25.417969 165.082031 30.433594 165.25 37.699219 C 165.449219 44.964844 161.035156 54.398438 152 66 C 142.734375 76.667969 130.015625 85.265625 113.851562 91.800781 C 97.714844 98.300781 80.617188 101.648438 62.550781 101.851562 C 51.183594 101.882812 40.25 100.265625 29.75 97 C 19.25 93.765625 9.832031 88.601562 1.5 81.5 C 0.5 87 0 92.632812 0 98.398438 C 0.0351562 106.035156 0.882812 113.417969 2.550781 120.550781 C 5.785156 127.082031 9.5 132.316406 13.699219 136.25 C 17.933594 140.214844 21.964844 143.183594 25.800781 145.148438 C 35.933594 150.316406 50.933594 153.183594 70.800781 153.75 C 75.300781 153.75 80.035156 153.5 85 153 C 95.535156 152.167969 106.035156 150.167969 116.5 147 L 125.351562 161 C 108.785156 166.898438 91.382812 169.949219 73.148438 170.148438 C 54.714844 170.316406 37.167969 166.433594 20.5 158.5 C 29.632812 170.300781 40.898438 179.601562 54.300781 186.398438 C 67.699219 193.234375 82.398438 196.714844 98.398438 196.851562 C 114.101562 196.714844 128.535156 193.367188 141.699219 186.800781 L 150 200 L 195.398438 127.300781 L 128.449219 143.148438 C 146.683594 136.351562 162.035156 127.199219 174.5 115.699219 C 186.933594 104.199219 193.582031 91.300781 194.449219 77 C 189.25 54.898438 178.183594 36.785156 161.25 22.648438 Z M 66.25 40 C 59.515625 39.867188 55.566406 38.300781 54.398438 35.300781 C 53.867188 32.667969 55.667969 29.832031 59.800781 26.800781 C 63.933594 23.800781 69.464844 21.285156 76.398438 19.25 C 82.035156 17.683594 87.132812 16.933594 91.699219 17 C 98.398438 16.964844 102.332031 18.449219 103.5 21.449219 C 104.066406 24.082031 102.285156 26.933594 98.148438 30 C 94.015625 33 88.484375 35.5 81.550781 37.5 C 75.882812 39.066406 70.785156 39.898438 66.25 40 Z M 98.398438 0 C 82.066406 0.132812 67.082031 3.75 53.449219 10.851562 C 39.816406 17.949219 28.449219 27.667969 19.351562 40 C 14.683594 47.535156 13.285156 54.101562 15.148438 59.699219 C 17.015625 65.265625 20.234375 69.816406 24.800781 73.351562 C 29.332031 76.851562 33.316406 79.332031 36.75 80.800781 C 43.917969 82.800781 52.601562 83.867188 62.800781 84 C 65.667969 83.964844 68.667969 83.851562 71.800781 83.648438 C 86.632812 82.449219 101.484375 78.5 116.351562 71.800781 C 131.214844 65.132812 143.050781 57.199219 151.851562 48 C 160.617188 38.933594 163.285156 30.117188 159.851562 21.550781 C 142.582031 7.617188 122.101562 0.433594 98.398438 0 Z " stroke="#000000" fill="#000000">
</path>
</svg>
